<svg version="1.2" xmlns="http://www.w3.org/2000/svg" viewBox="0 0 1000 1000" width="500" height="500">
	<title>5216331-ai</title>
	<style>
		.s0 { fill: #ebebeb } 
		.s1 { fill: #263238 } 
		.s2 { fill: #f94b79} 
		.s3 { opacity: .1;fill: #000000 } 
		.s4 { fill: #37474f } 
		.s5 { opacity: .2;fill: #000000 } 
		.s6 { fill: #ffffff } 
		.s7 { opacity: .4;fill: #ffffff } 
		.s8 { fill: #dbdbdb } 
		.s9 { fill: #455a64 } 
	</style>
	<g id="Background Complete">
		<g id="&lt;Group&gt;">
			<g id="&lt;Group&gt;">
				<path id="&lt;Compound Path&gt;" fill-rule="evenodd" class="s0" d="m185.3 634.3l-29.7 0.5-15 0.3c-5 0.1-10.1 0-15.1 0.1h-0.9v-0.9l-0.1-25.3v-1h1l29.9 0.2c9.9 0 19.9 0.2 29.9 0.3h0.5v0.5c0 4.3-0.2 8.6-0.2 12.8zm0 0l-0.3-12.8c-0.1-4-0.2-8-0.3-11.9-9.8 0.1-19.6 0.3-29.3 0.3l-28.9 0.1-0.1 23.4c4.6 0 9.2 0 13.9 0.1l14.8 0.2zm-0.5-24.7q0.3 0 0.5 0l-0.5-0.5q0 0.2 0 0.5zm-58.3 0.4v-0.9l-1 0.9zm-0.1 23.4q-0.4 0-0.9 0l0.9 0.9z"/>
			</g>
			<g id="&lt;Group&gt;">
				<path id="&lt;Compound Path&gt;" fill-rule="evenodd" class="s0" d="m151.9 666.1l-29.6 0.6-15.1 0.2c-5 0.1-10 0.1-15.1 0.1h-0.9v-0.9l-0.1-25.2v-1h1l29.9 0.1c10 0 20 0.2 29.9 0.3h0.6v0.6c-0.1 4.3-0.2 8.5-0.3 12.7zm0 0l-0.3-12.7c-0.1-4-0.2-8-0.2-12-9.8 0.1-19.6 0.3-29.4 0.3l-28.9 0.2-0.1 23.3c4.6 0.1 9.3 0.1 13.9 0.2l14.9 0.2zm-0.6-24.7q0.3 0 0.6 0l-0.6-0.6q0 0.3 0 0.6zm-58.2 0.4v-1l-1 1zm-0.1 23.4q-0.5 0-0.9 0l0.9 0.9z"/>
			</g>
			<g id="&lt;Group&gt;">
				<path id="&lt;Compound Path&gt;" fill-rule="evenodd" class="s0" d="m151.9 119.4l-29.6 0.6-15.1 0.2c-5 0.1-10 0.1-15.1 0.1h-0.9v-0.9l-0.1-25.2v-1h1l29.9 0.1c10 0 20 0.2 29.9 0.3h0.6v0.6c-0.1 4.2-0.2 8.5-0.3 12.7zm0 0l-0.3-12.7c-0.1-4.1-0.2-8-0.2-12-9.8 0.1-19.6 0.3-29.4 0.3l-28.9 0.1-0.1 23.4c4.6 0.1 9.3 0 13.9 0.1l14.9 0.3zm-0.6-24.8q0.3 0 0.6 0l-0.6-0.5q0 0.3 0 0.5zm-58.2 0.5v-1l-1 1zm-0.1 23.4q-0.5 0-0.9 0l0.9 0.9z"/>
			</g>
			<g id="&lt;Group&gt;">
				<path id="&lt;Compound Path&gt;" fill-rule="evenodd" class="s0" d="m907.9 119.4l-29.7 0.6-15 0.2c-5 0.1-10.1 0.1-15.1 0.1h-0.9v-0.9l-0.1-25.2v-1h1l29.9 0.1c9.9 0 19.9 0.2 29.9 0.3h0.5v0.6c0 4.2-0.2 8.5-0.2 12.7zm0 0l-0.3-12.7c-0.1-4.1-0.2-8-0.3-12-9.8 0.1-19.6 0.3-29.3 0.3l-28.9 0.1-0.1 23.4c4.6 0.1 9.2 0 13.9 0.1l14.8 0.3zm-0.5-24.8q0.3 0 0.5 0l-0.5-0.5q0 0.3 0 0.5zm-58.3 0.5v-1l-1 1zm-0.1 23.4q-0.4 0-0.9 0l0.9 0.9z"/>
			</g>
			<g id="&lt;Group&gt;">
				<path id="&lt;Compound Path&gt;" fill-rule="evenodd" class="s0" d="m874.5 151.3l-29.6 0.5-15.1 0.3c-5 0.1-10 0-15.1 0.1h-0.9v-0.9l-0.1-25.3v-1h1l29.9 0.1c10 0.1 20 0.3 29.9 0.4h0.6v0.5c-0.1 4.3-0.2 8.6-0.3 12.8zm0 0l-0.3-12.8c-0.1-4-0.2-8-0.2-11.9-9.8 0.1-19.6 0.3-29.4 0.3l-28.9 0.1-0.1 23.4c4.6 0 9.3 0 13.9 0.1l14.9 0.2zm-0.6-24.7q0.3 0 0.6 0l-0.6-0.6q0 0.3 0 0.6zm-58.2 0.4v-1l-1 1zm-0.1 23.4q-0.5 0-0.9 0l0.9 0.9z"/>
			</g>
			<g id="&lt;Group&gt;">
				<path id="&lt;Compound Path&gt;" fill-rule="evenodd" class="s0" d="m721.4 446.9l-29.7 0.5-15 0.3c-5 0.1-10.1 0-15.1 0.1h-0.9v-0.9l-0.1-25.3v-1h1l29.9 0.1c10 0 19.9 0.3 29.9 0.4h0.5v0.5c0 4.3-0.1 8.5-0.2 12.8zm0 0l-0.3-12.8c-0.1-4-0.2-8-0.3-12-9.8 0.1-19.5 0.4-29.3 0.4l-28.9 0.1-0.1 23.4c4.6 0 9.2 0 13.9 0.1l14.8 0.2zm-0.5-24.7q0.3 0 0.5 0l-0.5-0.6q0 0.3 0 0.6zm-58.3 0.4v-1l-1 1zm-0.1 23.4q-0.4 0-0.8 0l0.8 0.9z"/>
			</g>
			<g id="&lt;Group&gt;">
				<path id="&lt;Compound Path&gt;" fill-rule="evenodd" class="s0" d="m688 478.7l-29.6 0.6-15.1 0.2c-5 0.1-10 0.1-15.1 0.1h-0.9v-0.9l-0.1-25.2v-1h1l29.9 0.1c10 0 20 0.2 29.9 0.3h0.6v0.6c-0.1 4.2-0.2 8.5-0.3 12.7zm0 0l-0.3-12.7c-0.1-4.1-0.2-8-0.2-12-9.8 0.1-19.6 0.3-29.4 0.3l-28.9 0.1-0.1 23.4c4.6 0.1 9.3 0 13.9 0.1l14.9 0.3zm-0.6-24.8q0.3 0 0.6 0l-0.6-0.5q0 0.3 0 0.5zm-58.2 0.5v-1l-1 1zm-0.1 23.4q-0.5 0-0.9 0l0.9 0.9z"/>
			</g>
			<g id="&lt;Group&gt;">
				<path id="&lt;Compound Path&gt;" fill-rule="evenodd" class="s0" d="m654.8 446.9l-29.7 0.5-15 0.3c-5 0.1-10.1 0-15.1 0.1h-0.9v-0.9l-0.1-25.3v-1h1l29.9 0.1c10 0 19.9 0.3 29.9 0.4h0.6v0.5c-0.1 4.3-0.2 8.5-0.3 12.8zm0 0l-0.3-12.8c-0.1-4-0.2-8-0.3-12-9.7 0.1-19.5 0.4-29.3 0.4l-28.9 0.1-0.1 23.4c4.6 0 9.3 0 13.9 0.1l14.9 0.2zm-0.6-24.7q0.3 0 0.6 0l-0.6-0.6q0 0.3 0 0.6zm-58.2 0.4v-1l-1 1zm-0.1 23.4q-0.5 0-0.9 0l0.9 0.9z"/>
			</g>
			<g id="&lt;Group&gt;">
				<path id="&lt;Compound Path&gt;" fill-rule="evenodd" class="s0" d="m907.9 666.1l-29.7 0.6-15 0.2c-5 0.1-10.1 0.1-15.1 0.1h-0.9v-0.9l-0.1-25.2v-1h1l29.9 0.1c9.9 0 19.9 0.2 29.9 0.3h0.5v0.6c0 4.3-0.2 8.5-0.2 12.7zm0 0l-0.3-12.7c-0.1-4-0.2-8-0.3-12-9.8 0.1-19.6 0.3-29.3 0.3l-28.9 0.2-0.1 23.3c4.6 0.1 9.2 0.1 13.9 0.2l14.8 0.2zm-0.5-24.7q0.3 0 0.5 0l-0.5-0.6q0 0.3 0 0.6zm-58.3 0.4v-1l-1 1zm-0.1 23.4q-0.4 0-0.9 0l0.9 0.9z"/>
			</g>
			<g id="&lt;Group&gt;">
				<path id="&lt;Compound Path&gt;" fill-rule="evenodd" class="s0" d="m399.9 194.6l-29.7 0.5-15 0.2c-5.1 0.1-10.1 0.1-15.1 0.2h-0.9v-0.9l-0.1-25.3v-1h1l29.9 0.1c9.9 0 19.9 0.2 29.9 0.4h0.5v0.5c0 4.3-0.2 8.5-0.3 12.7zm0 0l-0.2-12.7c-0.1-4-0.3-8-0.3-12-9.8 0.1-19.6 0.3-29.4 0.4l-28.9 0.1-0.1 23.4c4.7 0 9.3 0 13.9 0.1l14.9 0.2zm-0.5-24.7q0.2 0 0.5 0l-0.5-0.6q0 0.3 0 0.6zm-58.3 0.4v-1l-1 1zm-0.1 23.4q-0.4 0-0.9 0l0.9 0.9z"/>
			</g>
		</g>
		<g id="&lt;Group&gt;">
			<path id="&lt;Compound Path&gt;" fill-rule="evenodd" class="s0" d="m840.6 358.3c-1.7-1-3.8-1-5.5 0.1q-0.7 0.4-1.5 0.8-0.7 0.4-1.5 0.7c-1.8 0.9-3 2.6-3.1 4.6l-0.2 6.9-22.3-0.7 0.2-6.9c0.1-2-1-3.8-2.8-4.8q-1.4-0.8-2.8-1.7c-1.7-1.2-3.8-1.3-5.6-0.4l-6 3.3-10.5-19.7 6-3.3c1.7-0.9 2.8-2.8 2.8-4.8q-0.1-1.6 0.1-3.3c0.1-2-0.8-3.9-2.5-5l-5.8-3.6 11.7-19 5.9 3.6c1.7 1.1 3.8 1 5.6 0q0.7-0.4 1.4-0.8 0.7-0.4 1.4-0.8c1.9-0.8 3.1-2.6 3.2-4.6l0.2-6.8 22.3 0.6-0.2 6.9c-0.1 2 1 3.8 2.8 4.8q1.4 0.8 2.8 1.8c1.7 1.1 3.8 1.3 5.6 0.3l6-3.2 10.5 19.7-6 3.2c-1.7 1-2.8 2.8-2.7 4.8q0 1.7-0.2 3.4c-0.1 2 0.8 3.9 2.5 5l5.8 3.6-11.7 18.9zm-5.6-35.2c-4.8-8.9-15.9-12.3-24.8-7.5-8.9 4.8-12.3 15.9-7.5 24.8 4.8 8.9 15.9 12.2 24.8 7.5 8.9-4.8 12.2-15.9 7.5-24.8z"/>
			<path id="&lt;Compound Path&gt;" fill-rule="evenodd" class="s0" d="m197.2 573.4c-1.7-1.1-3.8-1-5.5 0q-0.7 0.5-1.5 0.9-0.7 0.4-1.4 0.7c-1.9 0.9-3.1 2.6-3.1 4.6l-0.3 6.9-22.3-0.7 0.2-6.9c0.1-2-1-3.8-2.8-4.8q-1.4-0.8-2.8-1.7c-1.7-1.2-3.8-1.3-5.6-0.4l-6 3.2-10.5-19.7 6-3.2c1.8-0.9 2.8-2.8 2.8-4.8q-0.1-1.7 0.1-3.3c0.1-2-0.8-4-2.5-5l-5.8-3.6 11.8-19 5.8 3.6c1.7 1.1 3.8 1 5.6 0q0.7-0.5 1.4-0.8 0.7-0.4 1.5-0.8c1.8-0.8 3-2.6 3.1-4.6l0.2-6.9 22.3 0.7-0.2 6.9c-0.1 2 1 3.8 2.8 4.8q1.4 0.8 2.8 1.7c1.7 1.2 3.8 1.3 5.6 0.4l6-3.2 10.6 19.7-6.1 3.2c-1.7 0.9-2.8 2.8-2.7 4.8q0 1.7-0.1 3.3c-0.2 2 0.7 4 2.4 5l5.8 3.6-11.7 19zm-5.6-35.2c-4.8-8.9-15.9-12.3-24.8-7.5-8.9 4.8-12.3 15.9-7.5 24.8 4.8 8.9 15.9 12.2 24.8 7.4 8.9-4.7 12.2-15.8 7.5-24.7z"/>
			<path id="&lt;Compound Path&gt;" fill-rule="evenodd" class="s0" d="m427.6 215.9c-1.2 0.7-1.9 2-1.8 3.4q0 0.6 0 1.2 0 0.6 0 1.1c-0.1 1.4 0.6 2.8 1.8 3.5l4.1 2.4-7.8 13.5-4.1-2.4c-1.3-0.7-2.8-0.6-3.9 0.2q-1 0.6-2.1 1.1c-1.2 0.7-2 1.9-2 3.3v4.8h-15.7v-4.8c0-1.4-0.8-2.6-2-3.3q-1.1-0.5-2-1.1c-1.2-0.8-2.7-0.9-3.9-0.2l-4.2 2.4-7.8-13.5 4.2-2.4c1.2-0.7 1.8-2.1 1.8-3.5q-0.1-0.5-0.1-1.1 0-0.6 0.1-1.2c0-1.4-0.6-2.7-1.9-3.4l-4.1-2.4 7.8-13.6 4.1 2.4c1.3 0.7 2.8 0.7 3.9-0.1q1-0.7 2.1-1.2c1.2-0.6 2-1.9 2-3.3v-4.8h15.7v4.8c0 1.4 0.8 2.7 2 3.3q1.1 0.5 2.1 1.2c1.1 0.8 2.6 0.8 3.9 0.1l4.1-2.4 7.8 13.6zm-23.6-8.2c-7.1 0-12.8 5.7-12.8 12.8 0 7.1 5.7 12.8 12.8 12.8 7.1 0 12.8-5.7 12.8-12.8 0-7.1-5.7-12.8-12.8-12.8z"/>
		</g>
	</g>
	<g id="Plant">
		<g id="&lt;Group&gt;">
			<g id="&lt;Group&gt;">
				<path id="&lt;Path&gt;" class="s1" d="m177.7 607.7c-26.2 25.6-30.6 65.2-25 99.8 0.1 0.8 1.3 0.6 1.3-0.1 0-7.9-0.2-15.8-0.2-23.6 0.1-0.3 0.3-0.6 0.4-1 6.8-5 13.1-10.6 17-18.2 4.3-8.6 6.1-18.3 9.4-27.3 0.3-0.8-0.6-0.6-1.2-0.1-15.9 11.7-21 24.3-25.5 41.2 0.2-8.8 0.9-17.5 2.7-26.3 3.5-16 10.3-31.9 21.8-43.7 0.4-0.5-0.3-1.2-0.7-0.7z"/>
				<g id="&lt;Group&gt;">
					<path id="&lt;Path&gt;" class="s2" d="m182.6 610.7c4.5 0.1 7.3 7.3 10.8 9.4 1.9 1.1 3.7 1 5-0.8 3.4-4.8-1.3-10.8-5.8-14.2 3.2 1.4 5.9 3.7 9.3 4.3 2.1 0.4 3.7-0.4 4.2-2.5 1.5-6.6-6.8-9.5-12.4-9.7 2.7-1.9 10.6-7.1 6.4-9.7-4.2-2.5-13.5 4.9-16.5 7.4-4.5 3.6-9.8 9-10 14.6-0.2 6.6 5.5 2.5 9 1.2z"/>
					<path id="&lt;Path&gt;" class="s3" d="m182.6 610.7c4.5 0.1 7.3 7.3 10.8 9.4 1.9 1.1 3.7 1 5-0.8 3.4-4.8-1.3-10.8-5.8-14.2 3.2 1.4 5.9 3.7 9.3 4.3 2.1 0.4 3.7-0.4 4.2-2.5 1.5-6.6-6.8-9.5-12.4-9.7 2.7-1.9 10.6-7.1 6.4-9.7-4.2-2.5-13.5 4.9-16.5 7.4-4.5 3.6-9.8 9-10 14.6-0.2 6.6 5.5 2.5 9 1.2z"/>
					<path id="&lt;Path&gt;" class="s2" d="m181.3 611.8c5.7-2.6 16.8 1.1 17.7-1.1 1.9-4.4-6.9-7.4-11.7-8 4.4-1.2 12.8-3.1 12.6-7.3-0.4-5.2-12.9-0.7-19.3 4.1-8 6.2-8 12.1-6.6 13.3 1.8 1.6 6.3-0.6 7.3-1z"/>
				</g>
			</g>
			<g id="&lt;Group&gt;">
				<path id="&lt;Path&gt;" class="s1" d="m118.1 605.1c27.1 24.6 33 64 28.8 98.9-0.1 0.8-1.3 0.6-1.3-0.1-0.3-7.9-0.4-15.8-0.7-23.5-0.2-0.4-0.3-0.7-0.4-1.1-7.1-4.7-13.5-10-17.7-17.6-4.7-8.4-6.8-18-10.5-26.8-0.3-0.9 0.6-0.7 1.2-0.2 16.4 11.1 21.9 23.5 27.1 40.2-0.5-8.8-1.5-17.5-3.7-26.2-4.1-15.8-11.5-31.4-23.4-42.8-0.5-0.5 0.2-1.2 0.6-0.8z"/>
				<g id="&lt;Group&gt;">
					<path id="&lt;Path&gt;" class="s2" d="m113.4 608.3c-4.5 0.3-7.1 7.6-10.5 9.9-1.8 1.1-3.6 1.1-5-0.6-3.6-4.7 0.9-10.9 5.2-14.4-3.1 1.4-5.7 3.8-9.1 4.6-2.1 0.5-3.7-0.2-4.3-2.3-1.8-6.6 6.4-9.8 12.1-10.2-2.9-1.8-11-6.7-6.9-9.4 4.2-2.8 13.7 4.3 16.9 6.7 4.5 3.4 10 8.6 10.5 14.2 0.5 6.6-5.4 2.8-8.9 1.5z"/>
					<path id="&lt;Path&gt;" class="s3" d="m113.4 608.3c-4.5 0.3-7.1 7.6-10.5 9.9-1.8 1.1-3.6 1.1-5-0.6-3.6-4.7 0.9-10.9 5.2-14.4-3.1 1.4-5.7 3.8-9.1 4.6-2.1 0.5-3.7-0.2-4.3-2.3-1.8-6.6 6.4-9.8 12.1-10.2-2.9-1.8-11-6.7-6.9-9.4 4.2-2.8 13.7 4.3 16.9 6.7 4.5 3.4 10 8.6 10.5 14.2 0.5 6.6-5.4 2.8-8.9 1.5z"/>
					<path id="&lt;Path&gt;" class="s2" d="m114.7 609.4c-5.9-2.4-16.7 1.8-17.8-0.4-2-4.3 6.7-7.7 11.4-8.5-4.4-1-12.9-2.6-12.8-6.8 0.1-5.2 12.9-1.2 19.4 3.4 8.3 5.9 8.4 11.8 7.1 13-1.7 1.7-6.3-0.3-7.3-0.7z"/>
				</g>
			</g>
			<g id="&lt;Group&gt;">
				<path id="&lt;Path&gt;" class="s1" d="m145.9 670.1c2 12.9 4.4 26.3 8.4 38.8 0.3 1.1 2 0.9 1.9-0.4-1.8-11.9-5.1-23.7-6.8-35.7-1.9-12.1-2.8-24.4-2.1-36.6 1.1-20.2 6.6-41.7 19.8-57.5 0.2-0.3-0.4-0.9-0.7-0.5-26.3 30.7-22.1 68.4-22.1 71.8-3.7-12.7-7.6-27.3-21.7-40.3-0.6-0.5-1.1-0.3-1 0.7 2.5 23.6 9.1 35.9 22.8 48.5q0.6 5.6 1.5 11.2z"/>
				<g id="&lt;Group&gt;">
					<path id="&lt;Path&gt;" class="s2" d="m167.3 582.3c4.7-2.1 11.3 3.9 16 4.3 2.5 0.2 4.3-0.7 4.7-3.3 1.2-6.8-6.8-10.6-13.1-11.8 4-0.2 7.9 0.8 11.8-0.2 2.4-0.7 3.7-2.3 3.1-4.8-1.7-7.6-11.8-6.5-17.8-3.7 1.9-3.4 7.5-12.8 1.9-13.3-5.7-0.6-11.6 11.8-13.5 15.9-2.8 6-5.6 14.2-3 20.2 3.1 6.9 7-0.2 9.9-3.3z"/>
					<path id="&lt;Path&gt;" class="s3" d="m167.3 582.3c4.7-2.1 11.3 3.9 16 4.3 2.5 0.2 4.3-0.7 4.7-3.3 1.2-6.8-6.8-10.6-13.1-11.8 4-0.2 7.9 0.8 11.8-0.2 2.4-0.7 3.7-2.3 3.1-4.8-1.7-7.6-11.8-6.5-17.8-3.7 1.9-3.4 7.5-12.8 1.9-13.3-5.7-0.6-11.6 11.8-13.5 15.9-2.8 6-5.6 14.2-3 20.2 3.1 6.9 7-0.2 9.9-3.3z"/>
					<path id="&lt;Path&gt;" class="s2" d="m166.5 584.1c4.7-5.6 18-7.3 17.9-10-0.3-5.6-11-4.3-16.2-2.5 4-3.4 11.7-9.6 9.3-13.9-2.9-5.2-13.7 5.8-17.9 14-5.2 10.4-2.1 16.6-0.2 17.1 2.7 0.8 6.3-3.8 7.1-4.7z"/>
				</g>
			</g>
			<path id="&lt;Path&gt;" class="s2" d="m128.5 677.2l-11.6 88.8h70.7c-1.4-7.9-14.6-88.9-14.6-88.9z"/>
		</g>
	</g>
	<g id="Floor">
		<path id="&lt;Path&gt;" class="s1" d="m86.7 766.3l103.4-0.5 103.3-0.2 206.6-0.3 206.6 0.3 103.3 0.2 103.4 0.5-103.4 0.5-103.3 0.2-206.6 0.3-206.6-0.4-103.3-0.1z"/>
	</g>
	<g id="Shadow">
		<path id="&lt;Path&gt;" class="s0" d="m798.1 898.1c0 23.3-133.5 42.1-298.1 42.1-164.6 0-298.1-18.8-298.1-42.1 0-23.3 133.5-42.2 298.1-42.2 164.6 0 298.1 18.9 298.1 42.2z"/>
	</g>
	<g id="404 Error">
		<g id="&lt;Group&gt;">
			<g id="&lt;Group&gt;">
				<path id="&lt;Compound Path&gt;" fill-rule="evenodd" class="s1" d="m315.1 455.3l-12.4-48.8-98 24.9-13-51 78.4-178.6 38.8-9.9 37.8 148.7 31.4-8 13.1 51.4-31.4 8 12.4 48.8zm-67.2-89.6l48.5-12.3-16-63.1z"/>
				<path id="&lt;Compound Path&gt;" fill-rule="evenodd" class="s1" d="m596 292.2q0 24.3-7.3 44.7-7.4 20.5-20.3 35.4-12.8 14.9-30.3 23.2-17.5 8.2-38.1 8.2-20.6 0-38.3-8.2-17.6-8.3-30.5-23.2-12.9-14.9-20.1-35.4-7.1-20.4-7.1-44.7 0-24.2 7.1-44.7 7.2-20.4 20.1-35.3 12.9-14.9 30.5-23.4 17.7-8.4 38.3-8.4 20.6 0 38.1 8.4 17.5 8.5 30.3 23.4 12.9 14.9 20.3 35.3 7.3 20.5 7.3 44.7zm-59.2 0q0-25.7-10.3-41.7-10.3-16-26.5-16-16.9 0-27 16-10.2 16-10.2 41.7 0 25.8 10.2 41.6 10.1 15.8 27 15.8 16.2 0 26.5-15.8 10.3-15.8 10.3-41.6z"/>
				<path id="&lt;Compound Path&gt;" fill-rule="evenodd" class="s1" d="m701.7 445.9l8-49.7-99.8-16.2 8.4-52 143-132.6 39.6 6.4-24.6 151.5 32 5.2-8.5 52.3-31.9-5.2-8.1 49.7zm-26-108.9l49.4 8 10.5-64.3z"/>
			</g>
			<g id="&lt;Group&gt;">
				<path id="&lt;Compound Path&gt;" fill-rule="evenodd" class="s1" d="m417.4 144.9q-6.4 0-11.5-2.4-5.1-2.5-8.8-6.6-3.7-4.1-5.7-9.3-2-5.3-2-10.8 0-5.7 2.1-11 2.2-5.2 5.9-9.2 3.8-4.1 9-6.5 5.1-2.3 11.2-2.3 6.2 0 11.3 2.5 5.2 2.5 8.8 6.7 3.6 4.1 5.7 9.3 2 5.3 2 10.7 0 5.7-2.1 10.9-2.1 5.3-5.8 9.3-3.7 4-8.9 6.3-5.2 2.4-11.2 2.4zm-16.7-29.1q0 3.8 1.1 7.2 1.2 3.5 3.3 6.2 2.2 2.6 5.3 4.2 3.1 1.7 7 1.7 4.1 0 7.2-1.7 3.1-1.6 5.2-4.4 2.2-2.7 3.3-6.2 1.1-3.4 1.1-7 0-3.7-1.2-7.2-1.2-3.4-3.3-6.1-2.2-2.7-5.3-4.2-3.1-1.6-7-1.6-4 0-7.2 1.6-3.1 1.7-5.2 4.4-2.1 2.7-3.2 6.1-1.1 3.5-1.1 7z"/>
				<path id="&lt;Compound Path&gt;" fill-rule="evenodd" class="s1" d="m472.5 145.3q-5.2 0-9.3-1.8-4.2-1.7-7-4.8-2.9-3-4.4-6.9-1.6-4-1.6-8.4 0-4.4 1.6-8.4 1.5-3.9 4.4-7 2.8-3 7-4.8 4.1-1.7 9.3-1.7 5.1 0 9.2 1.7 4.1 1.8 6.9 4.8 2.9 3.1 4.5 7 1.5 4 1.5 8.4 0 4.4-1.5 8.4-1.6 3.9-4.4 6.9-2.8 3.1-7 4.8-4.1 1.8-9.2 1.8zm-11.1-21.9q0 2.9 0.8 5.2 0.9 2.3 2.4 4 1.5 1.7 3.5 2.6 2 0.9 4.4 0.9 2.3 0 4.3-0.9 2-0.9 3.5-2.6 1.5-1.7 2.4-4.1 0.8-2.3 0.8-5.2 0-2.7-0.8-5-0.9-2.4-2.4-4.1-1.5-1.7-3.5-2.6-2-0.9-4.3-0.9-2.4 0-4.4 0.9-2 1-3.5 2.7-1.5 1.7-2.4 4-0.8 2.4-0.8 5.1z"/>
				<path id="&lt;Compound Path&gt;" fill-rule="evenodd" class="s1" d="m527.2 145.3q-5 0-8.7-2.2-3.7-2.2-5.8-6v24.6h-10.8v-59.5h9.4v7.3q2.4-3.8 6.1-5.9 3.7-2.1 8.5-2.1 4.3 0 8 1.7 3.6 1.7 6.2 4.7 2.6 2.9 4.1 6.9 1.5 4 1.5 8.5 0 4.6-1.3 8.6-1.4 4.1-3.9 7-2.4 3-5.8 4.7-3.4 1.7-7.5 1.7zm-3.6-9.2q2.4 0 4.5-1 2-1.1 3.5-2.9 1.4-1.7 2.3-4.1 0.8-2.3 0.8-4.8 0-2.7-0.9-5-0.9-2.3-2.5-4-1.6-1.7-3.7-2.7-2.2-0.9-4.7-0.9-1.5 0-3.1 0.5-1.6 0.5-3 1.5-1.4 1-2.5 2.2-1.1 1.3-1.6 2.9v9.9q1.4 3.6 4.4 6 3 2.4 6.5 2.4z"/>
				<path id="&lt;Compound Path&gt;" class="s1" d="m569.1 145.3q-5.4 0-10.4-1.7-5.1-1.7-8.8-4.8l4.1-6.8q3.8 2.7 7.5 4.2 3.7 1.4 7.3 1.4 3.3 0 5.1-1.2 1.9-1.3 1.9-3.5 0-2.3-2.2-3.3-2.2-1.1-7.1-2.5-4.1-1.1-7-2.1-2.9-1.1-4.7-2.4-1.8-1.4-2.6-3.1-0.8-1.7-0.8-4.1 0-3.3 1.2-5.9 1.3-2.6 3.6-4.4 2.2-1.8 5.2-2.8 3.1-0.9 6.6-0.9 4.8 0 9 1.3 4.1 1.4 7.6 4.5l-4.4 6.5q-3.2-2.4-6.2-3.5-3.1-1.2-6.1-1.2-2.7 0-4.6 1.2-1.8 1.1-1.8 3.6 0 1.1 0.4 1.9 0.5 0.7 1.4 1.3 1 0.5 2.6 1.1 1.6 0.5 3.9 1 4.4 1.2 7.5 2.3 3.1 1.1 5.1 2.6 1.9 1.5 2.9 3.3 0.9 1.9 0.9 4.6 0 6.2-4.6 9.8-4.6 3.6-12.5 3.6z"/>
				<path id="&lt;Compound Path&gt;" class="s1" d="m595.3 122.9v-36.3h10.9v36.3zm0 21.6v-12.2h10.8v12.2z"/>
			</g>
		</g>
	</g>
	<g id="Robot">
		<g id="&lt;Group&gt;">
			<g id="&lt;Group&gt;">
				<path id="&lt;Path&gt;" class="s4" d="m541.2 633.5h-71v-5.8h71z"/>
				<path id="&lt;Path&gt;" class="s4" d="m541.2 641.1h-71v-5.8h71z"/>
				<path id="&lt;Path&gt;" class="s4" d="m541.2 648.7h-71v-5.9h71z"/>
				<path id="&lt;Path&gt;" class="s4" d="m541.2 656.2h-71v-5.8h71z"/>
				<path id="&lt;Path&gt;" class="s4" d="m541.2 663.8h-71v-5.8h71z"/>
			</g>
			<g id="&lt;Group&gt;">
				<path id="&lt;Path&gt;" class="s4" d="m571.9 815h-135v-5.8h135z"/>
				<path id="&lt;Path&gt;" class="s4" d="m571.9 822.6h-135v-5.8h135z"/>
				<path id="&lt;Path&gt;" class="s4" d="m571.9 830.2h-135v-5.9h135z"/>
				<path id="&lt;Path&gt;" class="s4" d="m571.9 837.7h-135v-5.8h135z"/>
				<path id="&lt;Path&gt;" class="s4" d="m571.9 845.3h-135v-5.8h135z"/>
			</g>
			<g id="&lt;Group&gt;">
				<g id="&lt;Group&gt;">
					<path id="&lt;Path&gt;" class="s2" d="m377.7 579.6c0-0.8-29.6-10.7-29.6-10.7l1.8-101.8 39.2-8.4z"/>
					<path id="&lt;Path&gt;" class="s5" d="m377.7 579.6c0-0.8-29.6-10.7-29.6-10.7l1.8-101.8 39.2-8.4z"/>
				</g>
				<g id="&lt;Group&gt;">
					<path id="&lt;Path&gt;" class="s2" d="m649 619.5c0.2-0.7 31.4 0.2 31.4 0.2l33.4-96.2-34-21.4z"/>
					<path id="&lt;Path&gt;" class="s5" d="m649 619.5c0.2-0.7 31.4 0.2 31.4 0.2l33.4-96.2-34-21.4z"/>
				</g>
				<path id="&lt;Path&gt;" class="s2" d="m372 617.1c0 0 10.9-164.6 20.6-218.8 0 0 198.8 15.1 306.2 56.1 0 0-55.4 192.2-58.2 201.8 0 0-140.1-27.6-268.6-39.1z"/>
				<g id="&lt;Group&gt;">
					<path id="&lt;Path&gt;" class="s3" d="m549.4 420.3c-3.2 19.8-6.5 39.6-9.8 59.4l-10.3 59.4-0.5-0.8 66.6 15.8 33.3 8 33.2 8.3-33.4-7.5-33.4-7.6-66.7-15.6-0.7-0.2 0.2-0.7 10.6-59.3c3.5-19.7 7.2-39.5 10.9-59.2z"/>
					<path id="&lt;Compound Path&gt;" fill-rule="evenodd" class="s3" d="m542.1 431.6c0.1 1.8-1.4 3.7-3.5 3.9-1 0.1-2.1-0.3-2.9-1-0.8-0.7-1.3-1.8-1.3-2.9 0-1.1 0.5-2.2 1.3-2.9 0.8-0.7 1.9-1.1 2.9-1 2.1 0.2 3.6 2.1 3.5 3.9zm0 0c0-0.9-0.4-1.8-1.1-2.4-0.6-0.6-1.5-0.8-2.4-0.7-1.6 0.2-2.7 1.7-2.7 3.1 0 1.4 1.1 2.9 2.7 3.1 0.9 0.1 1.8-0.1 2.4-0.7 0.7-0.6 1.1-1.5 1.1-2.4z"/>
					<path id="&lt;Compound Path&gt;" fill-rule="evenodd" class="s3" d="m538.6 456.1c0.1 1.8-1.4 3.7-3.4 3.9-1.1 0.1-2.2-0.3-3-1-0.8-0.7-1.3-1.8-1.3-2.9 0-1.1 0.5-2.2 1.3-2.9 0.8-0.7 1.9-1.1 3-1 2 0.2 3.5 2.1 3.4 3.9zm0 0c0-0.9-0.4-1.8-1.1-2.4-0.6-0.6-1.5-0.8-2.3-0.7-1.7 0.2-2.8 1.7-2.8 3.1 0 1.4 1.1 2.9 2.8 3.1 0.8 0.1 1.7-0.1 2.3-0.7 0.7-0.6 1.1-1.5 1.1-2.4z"/>
					<path id="&lt;Compound Path&gt;" fill-rule="evenodd" class="s3" d="m534.3 482c0.1 1.8-1.4 3.7-3.4 3.8-1.1 0.1-2.2-0.2-3-0.9-0.8-0.7-1.3-1.8-1.3-2.9 0-1.1 0.5-2.2 1.3-3 0.8-0.7 1.9-1 3-0.9 2 0.2 3.5 2.1 3.4 3.9zm0 0c0-0.9-0.4-1.8-1.1-2.4-0.6-0.6-1.5-0.8-2.3-0.7-1.7 0.2-2.8 1.7-2.8 3.1 0 1.4 1.1 2.9 2.8 3.1 0.8 0.1 1.7-0.2 2.3-0.7 0.7-0.6 1.1-1.5 1.1-2.4z"/>
					<path id="&lt;Compound Path&gt;" fill-rule="evenodd" class="s3" d="m530 507.9c0.1 1.8-1.4 3.6-3.4 3.8-1.1 0.1-2.2-0.2-3-0.9-0.8-0.7-1.3-1.8-1.3-2.9 0-1.2 0.5-2.3 1.3-3 0.8-0.7 1.9-1 3-0.9 2 0.2 3.5 2 3.4 3.9zm0 0c0-1-0.4-1.9-1.1-2.4-0.6-0.6-1.5-0.9-2.3-0.8-1.7 0.2-2.8 1.7-2.8 3.2 0 1.4 1.1 2.9 2.8 3.1 0.8 0.1 1.7-0.2 2.3-0.8 0.7-0.5 1.1-1.4 1.1-2.3z"/>
					<path id="&lt;Compound Path&gt;" fill-rule="evenodd" class="s3" d="m544.7 549.1c0 1.8-1.4 3.7-3.5 3.9-1 0.1-2.1-0.2-2.9-1-0.8-0.7-1.3-1.8-1.3-2.9 0-1.1 0.5-2.2 1.3-2.9 0.8-0.7 1.9-1 2.9-0.9 2.1 0.1 3.5 2 3.5 3.8zm0 0c0-0.9-0.4-1.8-1.1-2.4-0.7-0.6-1.6-0.8-2.4-0.7-1.7 0.2-2.8 1.7-2.7 3.1-0.1 1.4 1 2.9 2.7 3.1 0.8 0.1 1.7-0.1 2.4-0.7 0.7-0.6 1.1-1.5 1.1-2.4z"/>
					<path id="&lt;Compound Path&gt;" fill-rule="evenodd" class="s3" d="m569.1 555.1c0.1 1.8-1.4 3.7-3.5 3.8-1 0.1-2.1-0.2-2.9-0.9-0.8-0.7-1.3-1.8-1.3-2.9 0-1.1 0.5-2.2 1.3-2.9 0.8-0.8 1.9-1.1 2.9-1 2.1 0.2 3.6 2.1 3.5 3.9zm0 0c0-0.9-0.4-1.8-1.1-2.4-0.7-0.6-1.6-0.8-2.4-0.7-1.6 0.2-2.7 1.7-2.7 3.1 0 1.4 1 2.9 2.7 3.1 0.8 0.1 1.7-0.1 2.4-0.7 0.7-0.6 1.1-1.5 1.1-2.4z"/>
					<path id="&lt;Compound Path&gt;" fill-rule="evenodd" class="s3" d="m593.5 561c0.1 1.9-1.4 3.7-3.4 3.9-1.1 0.1-2.1-0.2-3-0.9-0.8-0.8-1.3-1.9-1.3-3 0-1.1 0.5-2.2 1.3-2.9 0.8-0.7 1.9-1 3-0.9 2 0.2 3.5 2 3.4 3.8zm0 0c0-0.9-0.4-1.8-1-2.4-0.7-0.5-1.6-0.8-2.4-0.7-1.7 0.2-2.8 1.7-2.8 3.1 0 1.5 1.1 3 2.8 3.2 0.8 0 1.7-0.2 2.4-0.8 0.6-0.5 1-1.4 1-2.4z"/>
					<path id="&lt;Compound Path&gt;" fill-rule="evenodd" class="s3" d="m618 567c0 1.8-1.4 3.7-3.5 3.9-1 0.1-2.1-0.3-2.9-1-0.9-0.7-1.4-1.8-1.4-2.9 0-1.1 0.5-2.2 1.4-2.9 0.8-0.7 1.9-1.1 2.9-1 2.1 0.2 3.5 2.1 3.5 3.9zm0 0c0-0.9-0.4-1.8-1.1-2.4-0.7-0.6-1.6-0.8-2.4-0.7-1.7 0.2-2.8 1.7-2.8 3.1 0 1.4 1.1 2.9 2.8 3.1 0.8 0.1 1.7-0.1 2.4-0.7 0.7-0.6 1.1-1.5 1.1-2.4z"/>
					<path id="&lt;Compound Path&gt;" fill-rule="evenodd" class="s3" d="m642.4 573.2c-0.1 1.8-1.7 3.6-3.8 3.6-1 0-2.1-0.4-2.8-1.2-0.8-0.7-1.2-1.9-1.1-3 0.1-1.1 0.6-2.1 1.5-2.8 0.9-0.6 2-0.9 3-0.7 2.1 0.3 3.4 2.3 3.2 4.1zm0 0c0.1-0.9-0.3-1.8-0.9-2.4-0.7-0.7-1.5-1-2.4-0.9-1.6 0-2.8 1.4-2.9 2.8-0.2 1.5 0.8 3 2.5 3.4 0.8 0.1 1.7 0 2.4-0.6 0.7-0.5 1.2-1.4 1.3-2.3z"/>
					<path id="&lt;Compound Path&gt;" fill-rule="evenodd" class="s3" d="m525.7 533.7c0.1 1.8-1.4 3.7-3.4 3.9-1.1 0.1-2.2-0.2-3-0.9-0.8-0.8-1.3-1.9-1.3-3 0-1.1 0.5-2.2 1.3-2.9 0.8-0.7 1.9-1 3-0.9 2 0.1 3.5 2 3.4 3.8zm0 0c0-0.9-0.4-1.8-1.1-2.4-0.6-0.5-1.5-0.8-2.3-0.7-1.7 0.2-2.8 1.7-2.8 3.1 0 1.4 1.1 3 2.8 3.1 0.8 0.1 1.7-0.1 2.3-0.7 0.7-0.6 1.1-1.5 1.1-2.4z"/>
				</g>
				<g id="&lt;Group&gt;">
					<g id="&lt;Group&gt;">
						<path id="&lt;Path&gt;" class="s5" d="m502.6 543.6c-5 30.8-34 51.7-64.8 46.8-30.7-5-51.7-34-46.7-64.8 5-30.8 34-51.7 64.8-46.7 30.8 5 51.7 34 46.7 64.7z"/>
						<path id="&lt;Path&gt;" class="s1" d="m491.6 541.9c-4 24.6-27.3 41.4-52 37.4-24.7-4-41.4-27.2-37.4-51.9 4-24.7 27.2-41.5 51.9-37.5 24.7 4 41.5 27.3 37.5 52z"/>
						<g id="&lt;Group&gt;">
							<path id="&lt;Path&gt;" class="s2" d="m442.4 528.6l-10.6-1.7 1.7-10.6 10.6 1.7z"/>
							<path id="&lt;Path&gt;" class="s2" d="m433.5 516.3l-10.5-1.7 1.7-10.6 10.6 1.7z"/>
							<path id="&lt;Path&gt;" class="s2" d="m475.9 523.1l-10.6-1.7 1.7-10.6 10.6 1.8z"/>
							<path id="&lt;Path&gt;" class="s2" d="m426.7 558.4l-10.6-1.7 1.7-10.6 10.6 1.7z"/>
							<path id="&lt;Path&gt;" class="s2" d="m469.1 565.3l-10.6-1.8 1.7-10.5 10.6 1.7z"/>
							<path id="&lt;Path&gt;" class="s2" d="m439 549.5l-10.6-1.7 1.8-10.6 10.5 1.7z"/>
							<path id="&lt;Path&gt;" class="s2" d="m451.3 540.8l-10.6-1.7 1.7-10.6 10.6 1.7z"/>
							<path id="&lt;Path&gt;" class="s2" d="m463.6 532l-10.6-1.7 1.7-10.6 10.6 1.7z"/>
							<path id="&lt;Path&gt;" class="s2" d="m460.2 553l-10.6-1.8 1.7-10.6 10.6 1.8z"/>
						</g>
					</g>
					<g id="&lt;Group&gt;">
						<g id="&lt;Group&gt;">
							<path id="&lt;Path&gt;" class="s2" d="m653.3 571.3c-7.2 30.4-37.6 49.1-68 41.9-30.3-7.2-49.1-37.6-41.8-68 7.2-30.3 37.6-49.1 67.9-41.9 30.4 7.3 49.1 37.7 41.9 68z"/>
							<path id="&lt;Path&gt;" class="s5" d="m653.3 571.3c-7.2 30.4-37.6 49.1-68 41.9-30.3-7.2-49.1-37.6-41.8-68 7.2-30.3 37.6-49.1 67.9-41.9 30.4 7.3 49.1 37.7 41.9 68z"/>
							<path id="&lt;Path&gt;" class="s5" d="m653.3 571.3q-0.4 1.7-0.9 3.3l-110-23.5q0.4-2.9 1-5.9c7.3-30.3 37.7-49.1 68-41.9 30.4 7.3 49.1 37.7 41.9 68z"/>
						</g>
						<path id="&lt;Path&gt;" class="s1" d="m642.4 568.7c-5.7 24.4-30.2 39.4-54.5 33.6-24.3-5.7-39.4-30.2-33.6-54.5 5.8-24.3 30.2-39.4 54.6-33.6 24.3 5.8 39.3 30.2 33.5 54.5z"/>
						<g id="&lt;Group&gt;">
							<path id="&lt;Path&gt;" class="s2" d="m597.4 585.5l-10.4-2.5 12.3-51.9 10.5 2.5z"/>
						</g>
						<g id="&lt;Group&gt;">
							<path id="&lt;Path&gt;" class="s2" d="m656.6 570.3l-115.6-27.5c7.6-31.9 39.6-51.6 71.5-44 31.9 7.5 51.7 39.6 44.1 71.5z"/>
							<path id="&lt;Path&gt;" class="s5" d="m656.6 570.3l-115.6-27.5c7.6-31.9 39.6-51.6 71.5-44 31.9 7.5 51.7 39.6 44.1 71.5z"/>
						</g>
					</g>
					<path id="&lt;Path&gt;" class="s3" d="m500.1 591.8c0.3-4.5 2-9 5.3-12.7 1.6-1.8 3.7-3.2 6.1-4.1 2.4-0.9 5-1 7.4-0.8 2.5 0.3 5 1.1 7.1 2.7 2 1.6 3.6 3.7 4.5 5.9 1.9 4.5 2.1 9.3 1.2 13.7-0.8-4.4-1.9-8.7-4-12.2-2.1-3.6-5.3-5.8-9.2-6.2-4-0.4-7.9 0.6-11 3.3-3.1 2.6-5.5 6.4-7.4 10.4z"/>
				</g>
				<g id="&lt;Group&gt;">
					<path id="&lt;Path&gt;" class="s6" d="m387.4 476.7c0.5-6.1 1.2-12.1 1.8-18.1q0.9-9 2-18c0.7-6 1.5-12 2.2-18 0.8-6 1.6-11.9 2.5-17.9l0.2-1.6 1.6 0.1q19.5 1.2 39 3.2 9.7 1 19.4 2.2c6.5 1 13 1.8 19.4 3l-39-2.4-39-2.5 1.8-1.5c-0.9 5.9-1.7 11.9-2.6 17.9-1 6-1.9 11.9-2.9 17.9q-1.4 8.9-3 17.9c-1.1 5.9-2.1 11.9-3.4 17.8z"/>
					<path id="&lt;Path&gt;" class="s6" d="m396.8 522.3c1.3-7.2 4.6-14.2 9.1-20.2 1.1-1.5 2.3-2.9 3.5-4.3 1.3-1.4 2.7-2.7 4-4q2.2-1.8 4.5-3.5c1.6-1 3.1-2.1 4.7-3 1.8-0.9 3.5-1.7 5.2-2.5l5.3-1.8 5.6-1.2c1.9-0.3 3.7-0.3 5.6-0.5 7.5-0.1 15 1.5 21.8 4.2-7.3-1.3-14.5-2.1-21.6-1.4-7.1 0.6-14 2.8-20.1 6.2-6.3 3.4-11.8 8.1-16.4 13.5-4.6 5.5-8.5 11.7-11.2 18.5z"/>
					<path id="&lt;Path&gt;" class="s6" d="m552.6 537.6c2.3-7 6.5-13.4 11.7-18.8 1.3-1.3 2.7-2.5 4.1-3.8 1.5-1.1 3-2.3 4.6-3.4q2.4-1.4 4.8-2.8c1.7-0.8 3.5-1.6 5.2-2.4 1.8-0.6 3.6-1.2 5.4-1.7l5.6-1.1 5.6-0.4c1.9 0 3.8 0.2 5.7 0.4 7.5 0.8 14.6 3.4 20.9 7.1-7-2.4-14-4.1-21.1-4.4-7.1-0.3-14.3 0.8-20.8 3.4-6.7 2.5-12.8 6.4-18.1 11.1-5.3 4.8-10 10.4-13.6 16.8z"/>
				</g>
			</g>
			<g id="&lt;Group&gt;">
				<g id="&lt;Group&gt;">
					<g id="&lt;Group&gt;">
						<path id="&lt;Path&gt;" class="s2" d="m378.3 718.5c-14.5 0-46.1-3.2-66.5-29.4-26.1-33.6-16.7-97.9-16.3-100.6l11.4 1.7c-0.1 0.6-9.1 62.2 13.9 91.8 22.5 29 63.4 24.8 63.8 24.8l1.3 11.4c-0.5 0-3.3 0.3-7.6 0.3z"/>
						<path id="&lt;Path&gt;" class="s7" d="m378.3 718.5c-14.5 0-46.1-3.2-66.5-29.4-26.1-33.6-16.7-97.9-16.3-100.6l11.4 1.7c-0.1 0.6-9.1 62.2 13.9 91.8 22.5 29 63.4 24.8 63.8 24.8l1.3 11.4c-0.5 0-3.3 0.3-7.6 0.3z"/>
					</g>
					<path id="&lt;Path&gt;" class="s2" d="m310.2 598q-3.1 0-6.3-0.5c-19.1-3.1-27.6-14.5-31.3-23.6-3.7-9-4.6-20-2.6-32.5l24.2 3.9c-1.2 7.8-0.8 14.6 1.1 19.3 1.4 3.3 4 7.3 12.5 8.7 3.9 0.6 8.1 0.3 12.5-6.3 3.3-5.2 5.4-12.1 6.1-16.5l24.2 3.9c-0.6 3.5-2.9 15.6-9.9 26.1-7.6 11.4-18.3 17.5-30.5 17.5z"/>
					<g id="&lt;Group&gt;">
						<path id="&lt;Path&gt;" class="s2" d="m402.2 751.3c0-0.6-20.5-3.8-20.5-3.8l-9.9-66.8 24.7-9.8z"/>
						<path id="&lt;Path&gt;" class="s5" d="m402.2 751.3c0-0.6-20.5-3.8-20.5-3.8l-9.9-66.8 24.7-9.8z"/>
					</g>
				</g>
				<g id="&lt;Group&gt;">
					<path id="&lt;Path&gt;" class="s2" d="m604.6 751.4c0-0.5 20.6-3.3 20.6-3.3l11.4-66.6-24.6-10.4z"/>
					<path id="&lt;Path&gt;" class="s5" d="m604.6 751.4c0-0.5 20.6-3.3 20.6-3.3l11.4-66.6-24.6-10.4z"/>
				</g>
				<path id="&lt;Path&gt;" class="s2" d="m393.7 655.9c0 0 165.6-7.1 221.5 2.3 0 0-16.4 160.2-17.3 163.3 0 0-164.7-0.5-190.5 0 0 0-13.9-106.6-13.7-165.6z"/>
				<g id="&lt;Group&gt;">
					<path id="&lt;Path&gt;" class="s5" d="m444 699.8c0 0 90.4-3.6 120.9 1.1 0 0-9 80.8-9.5 82.4 0 0-89.9-0.2-103.9 0 0 0-6.2-55.3-7.5-83.5z"/>
					<path id="&lt;Path&gt;" class="s5" d="m456.3 783.3c-2 0-3.7 0-4.8 0 0 0-6.2-55.3-7.5-83.5 0 0 2-0.1 5.6-0.2z"/>
					<g id="&lt;Group&gt;">
						<g id="&lt;Group&gt;">
							<g id="&lt;Group&gt;">
								<g id="&lt;Group&gt;">
									<path id="&lt;Compound Path&gt;" fill-rule="evenodd" class="s2" d="m499.4 735c-3.3 10.7-14.7 16.6-25.4 13.2-10.7-3.3-16.6-14.7-13.2-25.4 3.3-10.6 14.7-16.6 25.4-13.2 10.7 3.4 16.6 14.7 13.2 25.4zm-16-16.7c-5.8-1.8-12.1 1.4-13.9 7.3-1.8 5.8 1.4 12.1 7.3 13.9 5.8 1.9 12-1.4 13.9-7.2 1.8-5.9-1.4-12.1-7.3-14z"/>
									<g id="&lt;Group&gt;">
										<path id="&lt;Path&gt;" class="s2" d="m478 748.6l-7.5-2.3-1.2 5.4 6.6 2z"/>
										<path id="&lt;Path&gt;" class="s2" d="m464.6 741.6l-3.6-6.9-4.7 3 3.2 6.1z"/>
										<path id="&lt;Path&gt;" class="s2" d="m460.1 727.3l2.3-7.4-5.3-1.3-2.1 6.6z"/>
										<path id="&lt;Path&gt;" class="s2" d="m467.1 713.9l6.9-3.6-3-4.7-6.1 3.2z"/>
										<path id="&lt;Path&gt;" class="s2" d="m481.4 709.4l7.5 2.3 1.2-5.3-6.6-2.1z"/>
										<path id="&lt;Path&gt;" class="s2" d="m494.8 716.4l3.6 6.9 4.7-3-3.2-6.1z"/>
										<path id="&lt;Path&gt;" class="s2" d="m499.3 730.7l-2.3 7.5 5.3 1.2 2.1-6.6z"/>
										<path id="&lt;Path&gt;" class="s2" d="m492.3 744.1l-6.9 3.6 3 4.7 6.1-3.2z"/>
									</g>
								</g>
							</g>
						</g>
					</g>
					<g id="&lt;Group&gt;">
						<g id="&lt;Group&gt;">
							<g id="&lt;Group&gt;">
								<g id="&lt;Group&gt;">
									<path id="&lt;Compound Path&gt;" fill-rule="evenodd" class="s8" d="m523.6 760.9c-4.1 6.3-12.6 8.1-18.9 4-6.3-4.1-8.1-12.6-4-18.9 4.1-6.3 12.6-8.1 18.9-4 6.3 4.1 8.1 12.6 4 18.9zm-7.4-13.7c-3.4-2.3-8.1-1.3-10.3 2.2-2.3 3.4-1.3 8.1 2.2 10.3 3.4 2.3 8.1 1.3 10.3-2.2 2.3-3.4 1.3-8.1-2.2-10.3z"/>
									<g id="&lt;Group&gt;">
										<path id="&lt;Path&gt;" class="s8" d="m507.2 765.8l-4.4-2.8-1.8 3.2 3.9 2.6z"/>
										<path id="&lt;Path&gt;" class="s8" d="m499.8 758.9l-1.1-5.1-3.6 1 1 4.6z"/>
										<path id="&lt;Path&gt;" class="s8" d="m499.5 748.8l2.8-4.4-3.2-1.8-2.6 3.9z"/>
										<path id="&lt;Path&gt;" class="s8" d="m506.4 741.4l5.1-1.1-1-3.6-4.6 1z"/>
										<path id="&lt;Path&gt;" class="s8" d="m516.5 741l4.4 2.9 1.8-3.3-3.9-2.5z"/>
										<path id="&lt;Path&gt;" class="s8" d="m523.9 748l1.1 5.1 3.6-1.1-1-4.5z"/>
										<path id="&lt;Path&gt;" class="s8" d="m524.3 758.1l-2.9 4.4 3.3 1.8 2.5-3.9z"/>
										<path id="&lt;Path&gt;" class="s8" d="m517.3 765.5l-5.1 1.1 1.1 3.6 4.5-1z"/>
									</g>
								</g>
							</g>
						</g>
					</g>
				</g>
				<g id="&lt;Group&gt;">
					<path id="&lt;Path&gt;" class="s2" d="m611.2 802.8l6.4 1.2 18.2-123.2-7.3-1.4z"/>
					<g id="&lt;Group&gt;">
						<path id="&lt;Path&gt;" class="s2" d="m555.4 783.3l9.5-82.4 63.6-21.5c0 0-17.3 124.8-17.3 123.4z"/>
						<path id="&lt;Path&gt;" class="s7" d="m555.4 783.3l9.5-82.4 63.6-21.5c0 0-17.3 124.8-17.3 123.4z"/>
					</g>
				</g>
				<path id="&lt;Path&gt;" class="s6" d="m401.3 704.3c-1.1-6.8-1.6-13.7-2-20.6-0.2-3.4-0.3-6.9-0.4-10.3-0.1-3.5-0.1-6.9 0-10.4v-0.9h0.9c12.6-0.7 25.2-1.6 37.9-2.1 12.6-0.6 25.3-1.2 37.9-1.6-12.6 1.1-25.2 2.1-37.8 3-12.6 1-25.3 1.7-37.9 2.6l0.9-1v10.3l0.1 10.3q0 5.2 0.2 10.3z"/>
				<path id="&lt;Path&gt;" class="s6" d="m573.8 702.2q5.9-2.9 12-5.3 6-2.4 12.2-4.6c4.1-1.4 8.3-2.8 12.5-4 4.2-1.1 8.4-2.2 12.8-2.9l1-0.2-0.2 1c-1 5.3-2 10.7-3.2 16 0.4-5.5 1.1-10.9 1.8-16.2l0.8 0.8c-4.2 1-8.3 2.2-12.5 3.4q-6.2 1.9-12.4 3.9z"/>
				<g id="&lt;Group&gt;">
					<path id="&lt;Path&gt;" class="s3" d="m428.8 656.2l1.1 20.6 0.9 20.6 1.6 41.3 1.2 41.2 0.5 20.6 0.4 20.6-1.1-20.6-0.9-20.6-1.6-41.2-1.3-41.2-0.5-20.6z"/>
					<path id="&lt;Compound Path&gt;" fill-rule="evenodd" class="s3" d="m422.9 668.7c0.4 1.7-0.6 3.9-2.7 4.4-0.9 0.3-2.1 0.2-3-0.3-0.9-0.5-1.6-1.5-1.9-2.6-0.2-1.1 0.1-2.3 0.7-3.1 0.7-0.9 1.7-1.4 2.7-1.5 2.1-0.3 3.9 1.3 4.2 3.1zm0 0c-0.2-0.9-0.8-1.7-1.5-2.2-0.8-0.4-1.8-0.5-2.5-0.2-1.6 0.5-2.4 2.2-2.1 3.6 0.2 1.4 1.6 2.7 3.3 2.5 0.8-0.1 1.7-0.5 2.2-1.2 0.6-0.7 0.8-1.6 0.6-2.5z"/>
					<path id="&lt;Compound Path&gt;" fill-rule="evenodd" class="s3" d="m424.3 693.4c0.4 1.7-0.6 3.8-2.6 4.4-1 0.3-2.1 0.2-3.1-0.3-0.9-0.5-1.6-1.5-1.9-2.6-0.2-1.1 0.1-2.3 0.8-3.1 0.6-0.9 1.6-1.4 2.6-1.5 2.1-0.3 3.9 1.3 4.2 3.1zm0 0c-0.2-0.9-0.7-1.7-1.5-2.2-0.8-0.4-1.7-0.5-2.5-0.2-1.6 0.5-2.4 2.2-2.1 3.6 0.3 1.4 1.6 2.7 3.3 2.5 0.8-0.1 1.7-0.5 2.2-1.2 0.6-0.7 0.8-1.6 0.6-2.5z"/>
					<path id="&lt;Compound Path&gt;" fill-rule="evenodd" class="s3" d="m425.2 719.6c0.4 1.7-0.6 3.9-2.6 4.5-1 0.2-2.1 0.1-3.1-0.4-0.9-0.5-1.6-1.5-1.9-2.6-0.2-1.1 0.1-2.3 0.8-3.1 0.6-0.9 1.6-1.4 2.6-1.5 2.1-0.3 3.9 1.3 4.2 3.1zm0 0c-0.2-0.9-0.7-1.7-1.5-2.2-0.8-0.4-1.7-0.4-2.5-0.2-1.6 0.5-2.4 2.2-2.1 3.6 0.3 1.4 1.6 2.7 3.3 2.5 0.8 0 1.7-0.5 2.2-1.2 0.6-0.7 0.8-1.6 0.6-2.5z"/>
					<path id="&lt;Compound Path&gt;" fill-rule="evenodd" class="s3" d="m426.1 745.8c0.4 1.8-0.6 3.9-2.6 4.5-1 0.3-2.1 0.2-3.1-0.4-0.9-0.5-1.6-1.5-1.9-2.6-0.2-1.1 0.1-2.2 0.8-3.1 0.6-0.9 1.6-1.4 2.6-1.5 2.1-0.2 3.9 1.3 4.2 3.1zm0 0c-0.2-0.9-0.7-1.7-1.5-2.1-0.8-0.5-1.7-0.5-2.5-0.3-1.6 0.6-2.4 2.2-2.1 3.6 0.3 1.4 1.6 2.7 3.3 2.5 0.8 0 1.7-0.4 2.2-1.1 0.6-0.7 0.8-1.7 0.6-2.6z"/>
					<path id="&lt;Compound Path&gt;" fill-rule="evenodd" class="s3" d="m427 772c0.4 1.8-0.6 3.9-2.6 4.5-1 0.3-2.1 0.2-3.1-0.4-0.9-0.5-1.6-1.5-1.9-2.6-0.2-1.1 0.1-2.2 0.8-3.1 0.6-0.9 1.6-1.4 2.6-1.5 2.1-0.2 3.9 1.3 4.2 3.1zm0 0c-0.2-0.9-0.7-1.7-1.5-2.1-0.8-0.5-1.7-0.5-2.5-0.3-1.6 0.6-2.4 2.3-2.1 3.6 0.3 1.4 1.6 2.7 3.3 2.6 0.8-0.1 1.7-0.5 2.2-1.2 0.6-0.7 0.8-1.7 0.6-2.6z"/>
					<path id="&lt;Compound Path&gt;" fill-rule="evenodd" class="s3" d="m427.9 798.2c0.4 1.8-0.6 3.9-2.6 4.5-1 0.3-2.1 0.2-3.1-0.3-0.9-0.6-1.6-1.6-1.9-2.6-0.2-1.1 0.1-2.3 0.8-3.2 0.6-0.8 1.6-1.4 2.6-1.5 2.1-0.2 3.9 1.3 4.2 3.1zm0 0c-0.2-0.9-0.7-1.7-1.5-2.1-0.8-0.4-1.7-0.5-2.5-0.2-1.6 0.5-2.4 2.2-2.1 3.6 0.3 1.3 1.6 2.6 3.3 2.5 0.8-0.1 1.7-0.5 2.2-1.2 0.6-0.7 0.8-1.7 0.6-2.6z"/>
				</g>
			</g>
			<g id="&lt;Group&gt;">
				<path id="&lt;Path&gt;" class="s2" d="m345.6 877.7l-3.3-11 93.8-28.4 3.3 11z"/>
				<path id="&lt;Path&gt;" class="s7" d="m345.6 877.7l-3.3-11 93.8-28.4 3.3 11z"/>
				<path id="&lt;Path&gt;" class="s2" d="m385.4 867.8l-5.2-16.2 10.9-3.4 5.2 16.2z"/>
				<g id="&lt;Group&gt;">
					<path id="&lt;Path&gt;" class="s2" d="m344.9 893.7l-24.2-104.7-73.1 17.3 36 102.1z"/>
					<g id="&lt;Group&gt;">
						<path id="&lt;Path&gt;" class="s2" d="m361.1 888.4l-16.2 5.3-24.2-104.7 23.3 5.5z"/>
						<path id="&lt;Path&gt;" class="s5" d="m361.1 888.4l-16.2 5.3-24.2-104.7 23.3 5.5z"/>
					</g>
				</g>
				<path id="&lt;Path&gt;" class="s2" d="m450.1 843.8c0 6.9-5.5 12.4-12.4 12.4-6.8 0-12.4-5.5-12.4-12.4 0-6.9 5.6-12.4 12.4-12.4 6.9 0 12.4 5.5 12.4 12.4z"/>
			</g>
			<g id="&lt;Group&gt;">
				<path id="&lt;Path&gt;" class="s2" d="m656 877.6l-93.7-28.6 3.3-11 93.7 28.6z"/>
				<path id="&lt;Path&gt;" class="s7" d="m656 877.6l-93.7-28.6 3.3-11 93.7 28.6z"/>
				<path id="&lt;Path&gt;" class="s2" d="m616.2 867.7l-10.9-3.5 5.2-16.2 10.9 3.5z"/>
				<g id="&lt;Group&gt;">
					<path id="&lt;Path&gt;" class="s2" d="m656.7 893.6l24.4-104.7 73 17.5-36.2 102z"/>
					<g id="&lt;Group&gt;">
						<path id="&lt;Path&gt;" class="s2" d="m640.5 888.3l16.2 5.3 24.4-104.7-23.3 5.5z"/>
						<path id="&lt;Path&gt;" class="s5" d="m640.5 888.3l16.2 5.3 24.4-104.7-23.3 5.5z"/>
					</g>
				</g>
				<path id="&lt;Path&gt;" class="s2" d="m551.5 843.5c0 6.8 5.6 12.4 12.4 12.4 6.9 0 12.5-5.5 12.5-12.4 0-6.8-5.6-12.4-12.4-12.4-6.9 0-12.5 5.5-12.5 12.4z"/>
			</g>
			<g id="&lt;Group&gt;">
				<g id="&lt;Group&gt;">
					<path id="&lt;Path&gt;" class="s2" d="m645.3 714.3c0.3-0.3 30.4-28.2 65.9-18.7 36.2 9.8 66.1 64.3 66.4 64.9l10.1-5.4c-1.4-2.5-32.6-59.5-73.6-70.5-41.7-11.3-75.3 20-76.7 21.4z"/>
					<path id="&lt;Path&gt;" class="s7" d="m645.3 714.3c0.3-0.3 30.4-28.2 65.9-18.7 36.2 9.8 66.1 64.3 66.4 64.9l10.1-5.4c-1.4-2.5-32.6-59.5-73.6-70.5-41.7-11.3-75.3 20-76.7 21.4z"/>
				</g>
				<path id="&lt;Path&gt;" class="s2" d="m764.2 815.4l21.7-11.4c-2.1-4-4.6-10.7-5-16.9-0.5-7.9 2.7-10.7 6.1-12.5 7.6-4 12.2-2.4 15.3-0.6 4.3 2.6 8.7 7.8 12.4 14.8l21.7-11.5c-5.9-11.2-13.2-19.5-21.7-24.4-8.4-5-22-9-39.1 0-13.3 7-20.1 19.7-19.2 35.7 0.8 12.6 6.2 23.7 7.8 26.8z"/>
			</g>
			<g id="&lt;Group&gt;">
				<path id="&lt;Path&gt;" class="s1" d="m649.9 676c4.7-3.2 9.5-6.3 14.3-9.3 4.9-3 9.8-6 14.7-8.9 4.9-2.9 9.8-5.7 14.8-8.5l7.5-4.1c2.6-1.3 5.1-2.6 7.6-3.9-2.3 1.7-4.7 3.2-7.1 4.8l-7.2 4.6c-4.8 3-9.7 5.9-14.6 8.8-5 2.9-9.9 5.8-14.9 8.5-5 2.8-10 5.5-15.1 8z"/>
				<path id="&lt;Path&gt;" class="s1" d="m637.4 722.8c6.8 3.9 13.2 8.2 19.5 12.7 6.2 4.5 12.4 9.1 18.2 14.2-6.7-3.8-13.1-8.2-19.4-12.6-6.3-4.5-12.4-9.1-18.3-14.3z"/>
				<path id="&lt;Path&gt;" class="s1" d="m648.5 717.1c5.2 1.6 10.3 3.4 15.4 5.2 5.1 1.8 10.2 3.7 15.2 5.6 5.1 2 10.1 4 15.1 6.1l7.5 3.2c2.4 1.2 4.9 2.3 7.3 3.4-2.6-0.7-5.1-1.6-7.7-2.4l-7.7-2.7c-5.1-1.8-10.1-3.8-15.2-5.7-5-2-10.1-4-15-6.1-5-2.1-10-4.3-14.9-6.6z"/>
				<path id="&lt;Path&gt;" class="s1" d="m663.3 680.4c4.9-1.3 10-2.3 15-3.4 5-1.1 10-2 15.1-2.9 5-0.8 10.1-1.7 15.2-2.4l7.6-1.1c2.6-0.3 5.1-0.6 7.7-0.8-2.5 0.6-5 1.2-7.5 1.8l-7.5 1.6c-5.1 1.1-10.1 2-15.2 2.9-5 0.9-10.1 1.7-15.2 2.4-5 0.8-10.1 1.5-15.2 1.9z"/>
			</g>
		</g>
	</g>
	<g id="Gears">
		<g id="&lt;Group&gt;">
			<path id="&lt;Path&gt;" class="s1" d="m543.2 711.6c0.9-4.1 2.2-8 4-11.8 1.8-3.7 3.9-7.3 6.6-10.5 2.7-3.2 6.1-6 10.1-7.5 4-1.5 8.6-1.5 12.6 0.1 4.1 1.6 7.3 5 9 8.9 0.9 2 1.5 4.1 1.7 6.2 0.2 2.2 0.1 4.4-0.8 6.6-0.4 1-1.1 2.1-2.2 2.8-0.5 0.4-1.1 0.6-1.8 0.7-0.6 0.1-1.2 0-2-0.2-1.3-0.6-2-1.7-2.5-2.6q-0.8-1.5-1.2-3.1c-1.2-4.2-1.3-8.4-1.1-12.6 0.6-8.4 2.8-16.7 7.3-23.9 2.3-3.6 5.2-6.9 8.7-9.3 3.5-2.4 7.6-4 11.8-4.5 2-0.5 4.2-0.5 6.3-0.6 1-0.1 2.1 0.2 3.1 0.2 1.1 0.2 2.1 0.2 3.1 0.5 4.2 0.7 8.1 2.4 11.8 4.4 3.6 2.1 6.8 4.8 9.8 7.7 2.9 2.9 5.5 6.1 7.7 9.7-4.8-6.8-10.8-12.6-18-16.6-3.6-1.8-7.5-3.4-11.5-4-1-0.3-2-0.2-3-0.3-1-0.1-2-0.3-3-0.2-2 0.2-4.1 0.2-6 0.7-4.1 0.6-7.8 2.2-11.1 4.5-3.3 2.2-6 5.3-8.1 8.7-4.3 6.9-6.4 15-6.9 23.1-0.2 4-0.1 8.2 0.9 12 0.5 1.8 1.4 3.9 2.6 4.5 0.2 0 0.3 0.1 0.5 0.1 0.2 0 0.4 0 0.6-0.1 0.4 0 0.7-0.1 1-0.3 0.7-0.5 1.2-1.2 1.6-2 0.7-1.7 0.8-3.7 0.6-5.7-0.2-1.9-0.7-3.9-1.5-5.7-1.6-3.6-4.4-6.7-8-8.2-3.6-1.5-7.9-1.7-11.6-0.4-3.8 1.4-7 4-9.8 7-5.4 6.1-9.1 13.7-11.3 21.7z"/>
			<path id="&lt;Path&gt;" class="s1" d="m358.4 763.4c2-3.6 4.8-6.8 8.1-9.3 3.3-2.5 7.1-4.4 11.2-5.3 4.1-1 8.5-1 12.5 0.2 4.1 1.2 7.8 3.6 10.7 6.7 3 3 5.2 6.7 6.7 10.6 1.5 4 2.4 8.2 2.1 12.5-0.3 2.1-0.7 4.4-2.4 6.2-0.8 0.9-2.1 1.5-3.3 1.5-1.2 0-2.4-0.2-3.5-0.7-1.1-0.6-2-1.6-2.5-2.7-0.5-1.1-0.7-2.2-0.7-3.3-0.1-2.3 0.4-4.4 1-6.4 1.4-4.1 3.6-7.7 6.2-11 2.6-3.4 5.6-6.3 9-8.7 6.8-5 15.4-7.7 23.9-6.6 4.1 0.6 8.2 1.8 11.9 3.9 3.6 2 6.8 4.9 9.4 8.1 2.6 3.3 4.6 7 6.2 10.8 1.5 3.8 2.7 7.8 3.3 11.9-1.7-8-5-15.8-10.3-22-2.6-3.1-5.7-5.8-9.3-7.7-3.5-1.9-7.4-3-11.4-3.4-8-0.9-16.1 1.7-22.6 6.4-6.4 4.8-11.7 11.4-14.4 18.9-0.6 1.9-1.1 3.8-1 5.7 0.1 1.9 0.7 3.7 2.2 4.4 0.7 0.4 1.7 0.6 2.5 0.6q1.2-0.1 2.1-1c1.2-1.2 1.7-3.2 1.9-5.1 0.3-3.9-0.5-7.9-1.9-11.7-1.5-3.7-3.6-7.2-6.3-10.1-2.7-2.9-6.1-5.2-9.9-6.5-3.8-1.2-7.9-1.3-11.8-0.5-7.9 1.7-15.2 6.6-19.6 13.6z"/>
			<path id="&lt;Path&gt;" class="s1" d="m265.9 280.4c-0.2-8.2-2-16.5-5.8-23.7-1.9-3.6-4.5-6.9-7.8-9.1-3.3-2.2-7.5-3.1-11.4-2.4-3.8 0.6-7.3 2.9-9.7 6-1.2 1.6-2.2 3.4-2.8 5.2-0.7 1.8-1 3.8-0.7 5.7 0.1 0.9 0.4 1.7 1 2.2 0.2 0.3 0.6 0.5 0.9 0.7 0.2 0.1 0.4 0.1 0.6 0.1 0.2 0.1 0.3 0 0.5 0 1.3-0.2 2.7-2 3.6-3.7 1.8-3.5 2.9-7.4 3.7-11.4 1.4-8 1.3-16.4-1.2-24-1.2-3.9-3.1-7.5-5.8-10.5-2.6-3-5.9-5.5-9.6-7-1.8-0.9-3.8-1.4-5.7-2-1-0.4-2-0.4-3-0.7-1-0.1-2-0.4-3-0.3-4.1-0.4-8.1 0.2-12.1 1.2-7.9 2-15.2 6.3-21.4 11.7 2.9-2.9 6.3-5.4 9.8-7.6 3.6-2.1 7.3-3.9 11.3-5.1 4.1-1.1 8.3-1.8 12.5-1.5 1-0.1 2.1 0.2 3.1 0.3 1 0.2 2.1 0.2 3.1 0.6 2 0.6 4.1 1.1 6 2 3.9 1.5 7.5 4.1 10.3 7.3 2.9 3.1 4.9 7 6.3 11 2.6 8 2.8 16.7 1.3 25-0.8 4.1-1.9 8.2-4 12q-0.7 1.4-1.9 2.7c-0.8 0.8-1.7 1.7-3.1 1.9-0.8 0.1-1.4-0.1-2-0.3-0.6-0.2-1.1-0.6-1.6-1.1-0.9-0.9-1.3-2.1-1.4-3.3-0.4-2.3 0.1-4.4 0.8-6.5 0.7-2 1.8-3.9 3.1-5.6 2.6-3.4 6.6-6 10.9-6.6 4.3-0.6 8.8 0.5 12.3 2.9 3.5 2.5 6.1 6 8 9.7 1.8 3.8 3.1 7.8 3.9 11.9 0.8 4 1.2 8.2 1 12.3z"/>
			<path id="&lt;Path&gt;" class="s1" d="m707.5 384.7c-8-1.7-16.5-1.9-24.4 0.1-3.9 1.1-7.7 2.8-10.7 5.5-2.8 2.7-4.7 6.6-5 10.5-0.3 3.9 1.2 7.8 3.7 10.9 1.2 1.5 2.7 2.9 4.3 3.9 1.7 1.1 3.5 1.9 5.4 2.1 0.9 0 1.8-0.1 2.4-0.5 0.4-0.2 0.6-0.5 0.9-0.8 0.1-0.1 0.1-0.3 0.3-0.5 0-0.2 0-0.3 0.1-0.4 0-1.4-1.4-3.1-2.8-4.4-3-2.7-6.6-4.6-10.3-6.3-7.4-3.2-15.5-5.1-23.6-4.5-4 0.3-8 1.3-11.5 3.2-3.5 1.9-6.7 4.5-9 7.8-1.4 1.5-2.3 3.3-3.4 5-0.6 0.9-0.8 1.9-1.3 2.8-0.3 0.9-0.9 1.8-1.1 2.8-1.3 3.9-1.6 8-1.6 12 0.2 8.2 2.6 16.3 6.4 23.6-2.2-3.5-3.8-7.3-5.1-11.3-1.2-3.9-2.1-8-2.3-12.2-0.1-4.2 0.2-8.4 1.4-12.5 0.2-1 0.7-1.9 1.1-2.9 0.4-1 0.7-2 1.3-2.9 1-1.8 1.9-3.8 3.3-5.4 2.4-3.4 5.7-6.3 9.5-8.3 3.7-2.1 7.9-3.1 12.1-3.5 8.5-0.7 16.9 1.2 24.6 4.5 3.9 1.7 7.6 3.8 10.8 6.7q1.2 1.1 2.2 2.4c0.6 1 1.2 2.1 1.1 3.5-0.1 0.8-0.4 1.4-0.7 1.9-0.4 0.5-0.9 1-1.5 1.3-1.1 0.6-2.3 0.8-3.5 0.7-2.3-0.3-4.3-1.2-6.1-2.4-1.8-1.2-3.4-2.6-4.8-4.3-2.7-3.4-4.3-7.8-3.8-12.1 0.4-4.4 2.5-8.4 5.7-11.3 3.2-2.9 7.2-4.5 11.3-5.5 4.1-0.9 8.2-1.2 12.4-1 4.1 0.1 8.3 0.7 12.2 1.8z"/>
			<path id="&lt;Path&gt;" class="s1" d="m583.7 255.3c-1.3-4.7-1.5-9.8-0.8-14.7 0.8-4.9 2.5-9.7 5.2-13.9 2.6-4.2 6.4-7.9 10.9-10.2 4.5-2.3 9.6-3.3 14.6-3.2 5.1 0.1 10 1.5 14.6 3.5 4.5 2.2 8.8 5 12.1 8.9 1.6 2 3.1 4.3 3.2 7.2 0.1 1.4-0.5 3-1.5 4-1.1 1-2.2 1.8-3.6 2.2-1.3 0.4-2.9 0.3-4.2-0.2-1.3-0.5-2.4-1.3-3.4-2.2-1.9-1.8-3.3-4.1-4.4-6.3-2.2-4.6-3.4-9.5-3.9-14.5-0.6-5-0.4-10.1 0.4-15 1.7-9.9 6.8-19.4 14.9-25.5 4-3 8.5-5.4 13.4-6.6 4.8-1.3 9.9-1.6 14.8-1 5 0.6 9.8 2.1 14.3 4 4.5 2 8.9 4.4 12.8 7.4-8.1-5.5-17.5-9.4-27.2-10.4-4.8-0.5-9.8-0.1-14.4 1.2-4.7 1.3-8.9 3.7-12.8 6.7-3.7 3-6.9 6.7-9.3 10.9-2.3 4.2-3.8 8.9-4.7 13.6-1.5 9.5-0.5 19.6 3.5 28.3 1 2.2 2.3 4.2 3.9 5.8 1.7 1.6 3.8 2.6 5.8 2 1-0.3 2-1 2.7-1.7 0.7-0.7 1.1-1.6 1.1-2.7 0-2.1-1.3-4.2-2.8-6-3-3.7-7.1-6.4-11.4-8.5-4.4-2-9.2-3.2-14-3.5-4.7-0.2-9.6 0.7-13.9 2.9-4.3 2.1-8 5.5-10.6 9.5-5.4 8.1-7.5 18.4-5.3 28z"/>
			<g id="&lt;Group&gt;">
				<g id="&lt;Group&gt;">
					<g id="&lt;Group&gt;">
						<g id="&lt;Group&gt;">
							<path id="&lt;Compound Path&gt;" fill-rule="evenodd" class="s9" d="m366.3 777.3c-3 9.5-13.1 14.7-22.5 11.8-9.4-3-14.7-13.1-11.7-22.5 3-9.5 13-14.7 22.5-11.7 9.4 2.9 14.7 13 11.7 22.4zm-14.2-14.7c-5.1-1.6-10.6 1.2-12.3 6.4-1.6 5.2 1.3 10.7 6.4 12.3 5.2 1.7 10.7-1.2 12.4-6.4 1.6-5.2-1.3-10.7-6.5-12.3z"/>
							<g id="&lt;Group&gt;">
								<path id="&lt;Path&gt;" class="s9" d="m347.3 789.4l-6.6-2.1-1.1 4.8 5.9 1.8z"/>
								<path id="&lt;Path&gt;" class="s9" d="m335.5 783.2l-3.2-6.1-4.1 2.6 2.8 5.4z"/>
								<path id="&lt;Path&gt;" class="s9" d="m331.5 770.5l2.1-6.6-4.8-1.1-1.8 5.9z"/>
								<path id="&lt;Path&gt;" class="s9" d="m337.7 758.7l6.1-3.2-2.6-4.1-5.5 2.8z"/>
								<path id="&lt;Path&gt;" class="s9" d="m350.4 754.7l6.5 2.1 1.1-4.8-5.8-1.8z"/>
								<path id="&lt;Path&gt;" class="s9" d="m362.2 760.9l3.2 6.1 4.1-2.6-2.8-5.5z"/>
								<path id="&lt;Path&gt;" class="s9" d="m366.2 773.6l-2.1 6.5 4.8 1.1 1.8-5.8z"/>
								<path id="&lt;Path&gt;" class="s9" d="m360 785.4l-6.1 3.2 2.6 4.1 5.4-2.8z"/>
							</g>
						</g>
					</g>
				</g>
			</g>
			<g id="&lt;Group&gt;">
				<g id="&lt;Group&gt;">
					<path id="&lt;Compound Path&gt;" fill-rule="evenodd" class="s1" d="m645 712.4c-12.1-9-14.7-26.2-5.7-38.4 9.1-12.1 26.2-14.6 38.4-5.6 12.1 9 14.7 26.2 5.6 38.3-9 12.2-26.1 14.7-38.3 5.7zm24-32.3c-5.7-4.2-13.7-3-17.9 2.6-4.2 5.7-3.1 13.7 2.6 17.9 5.7 4.3 13.7 3.1 17.9-2.6 4.2-5.7 3-13.7-2.6-17.9z"/>
					<path id="&lt;Path&gt;" class="s1" d="m649.9 714.6l-8.4-6.3-4 6.4 7.5 5.5z"/>
					<path id="&lt;Path&gt;" class="s1" d="m635.9 699.8l-1.5-10.4-7.3 1.6 1.4 9.3z"/>
					<path id="&lt;Path&gt;" class="s1" d="m636.5 679.4l6.3-8.4-6.3-4-5.6 7.5z"/>
					<path id="&lt;Path&gt;" class="s1" d="m651.3 665.5l10.4-1.6-1.6-7.3-9.3 1.4z"/>
					<path id="&lt;Path&gt;" class="s1" d="m671.7 666l8.4 6.3 4-6.3-7.5-5.6z"/>
					<path id="&lt;Path&gt;" class="s1" d="m685.7 680.8l1.5 10.5 7.3-1.7-1.4-9.3z"/>
					<path id="&lt;Path&gt;" class="s1" d="m685.1 701.2l-6.3 8.4 6.3 4 5.6-7.5z"/>
					<path id="&lt;Path&gt;" class="s1" d="m670.3 715.2l-10.4 1.5 1.6 7.3 9.3-1.4z"/>
				</g>
				<path id="&lt;Compound Path&gt;" fill-rule="evenodd" class="s1" d="m655 683l9.2-1.4 5.9 7.3-3.5 8.7-9.2 1.4-5.9-7.3zm3.5 5.6c-1 1.3-0.7 3.1 0.6 4.1 1.3 1 3.2 0.7 4.1-0.6 1-1.3 0.7-3.2-0.6-4.2-1.3-0.9-3.2-0.7-4.1 0.7z"/>
			</g>
			<g id="&lt;Group&gt;">
				<g id="&lt;Group&gt;">
					<g id="&lt;Group&gt;">
						<g id="&lt;Group&gt;">
							<path id="&lt;Compound Path&gt;" fill-rule="evenodd" class="s1" d="m716.6 185c-2.6 8.3-11.4 12.9-19.7 10.3-8.2-2.6-12.8-11.5-10.2-19.7 2.6-8.3 11.4-12.9 19.7-10.3 8.2 2.6 12.8 11.5 10.2 19.7zm-12.4-12.9c-4.5-1.4-9.3 1.1-10.8 5.6-1.4 4.5 1.1 9.4 5.7 10.8 4.5 1.4 9.3-1.1 10.7-5.6 1.5-4.5-1-9.4-5.6-10.8z"/>
							<g id="&lt;Group&gt;">
								<path id="&lt;Path&gt;" class="s1" d="m700 195.5l-5.7-1.8-1 4.2 5.1 1.6z"/>
								<path id="&lt;Path&gt;" class="s1" d="m689.7 190.2l-2.8-5.4-3.6 2.3 2.4 4.7z"/>
								<path id="&lt;Path&gt;" class="s1" d="m686.2 179l1.8-5.7-4.2-1-1.6 5.1z"/>
								<path id="&lt;Path&gt;" class="s1" d="m691.6 168.7l5.3-2.8-2.3-3.6-4.7 2.5z"/>
								<path id="&lt;Path&gt;" class="s1" d="m702.7 165.2l5.7 1.8 1-4.2-5.1-1.6z"/>
								<path id="&lt;Path&gt;" class="s1" d="m713 170.6l2.8 5.3 3.6-2.2-2.4-4.8z"/>
								<path id="&lt;Path&gt;" class="s1" d="m716.5 181.7l-1.8 5.8 4.2 0.9 1.6-5.1z"/>
								<path id="&lt;Path&gt;" class="s1" d="m711.1 192l-5.3 2.8 2.2 3.7 4.8-2.5z"/>
							</g>
						</g>
					</g>
				</g>
			</g>
			<g id="&lt;Group&gt;">
				<g id="&lt;Group&gt;">
					<g id="&lt;Group&gt;">
						<g id="&lt;Group&gt;">
							<path id="&lt;Compound Path&gt;" fill-rule="evenodd" class="s1" d="m640.2 470.7c-2.6 8.3-11.4 12.9-19.7 10.3-8.3-2.6-12.8-11.4-10.2-19.7 2.6-8.2 11.4-12.8 19.6-10.2 8.3 2.6 12.9 11.4 10.3 19.6zm-12.4-12.9c-4.5-1.4-9.4 1.1-10.8 5.6-1.4 4.6 1.1 9.4 5.6 10.8 4.6 1.5 9.4-1.1 10.8-5.6 1.4-4.5-1.1-9.3-5.6-10.8z"/>
							<g id="&lt;Group&gt;">
								<path id="&lt;Path&gt;" class="s1" d="m623.6 481.3l-5.8-1.8-0.9 4.1 5.1 1.6z"/>
								<path id="&lt;Path&gt;" class="s1" d="m613.2 475.9l-2.7-5.4-3.7 2.3 2.5 4.8z"/>
								<path id="&lt;Path&gt;" class="s1" d="m609.7 464.8l1.8-5.8-4.1-1-1.6 5.2z"/>
								<path id="&lt;Path&gt;" class="s1" d="m615.1 454.4l5.4-2.8-2.3-3.6-4.8 2.5z"/>
								<path id="&lt;Path&gt;" class="s1" d="m626.2 450.9l5.8 1.8 1-4.1-5.2-1.6z"/>
								<path id="&lt;Path&gt;" class="s1" d="m636.6 456.3l2.8 5.4 3.6-2.3-2.5-4.8z"/>
								<path id="&lt;Path&gt;" class="s1" d="m640.1 467.4l-1.8 5.8 4.1 1 1.7-5.2z"/>
								<path id="&lt;Path&gt;" class="s1" d="m634.7 477.8l-5.4 2.8 2.3 3.6 4.8-2.5z"/>
							</g>
						</g>
					</g>
				</g>
			</g>
			<g id="&lt;Group&gt;">
				<g id="&lt;Group&gt;">
					<path id="&lt;Compound Path&gt;" fill-rule="evenodd" class="s1" d="m161.5 251.3c-12.6-3.1-20.4-15.8-17.3-28.5 3.1-12.6 15.8-20.4 28.5-17.3 12.7 3.1 20.4 15.8 17.3 28.5-3 12.6-15.8 20.4-28.5 17.3zm8.2-33.6c-5.9-1.4-11.8 2.2-13.3 8.1-1.4 5.9 2.2 11.9 8.1 13.3 5.9 1.4 11.9-2.2 13.3-8.1 1.5-5.9-2.2-11.9-8.1-13.3z"/>
					<path id="&lt;Path&gt;" class="s1" d="m166.2 251.4l-8.8-2.1-1.1 6.4 7.9 1.9z"/>
					<path id="&lt;Path&gt;" class="s1" d="m150.1 244.4l-4.7-7.8-5.2 3.8 4.2 6.9z"/>
					<path id="&lt;Path&gt;" class="s1" d="m143.8 228l2.1-8.8-6.3-1-2 7.8z"/>
					<path id="&lt;Path&gt;" class="s1" d="m150.8 212l7.8-4.7-3.8-5.2-6.9 4.1z"/>
					<path id="&lt;Path&gt;" class="s1" d="m167.2 205.6l8.8 2.2 1-6.4-7.8-1.9z"/>
					<path id="&lt;Path&gt;" class="s1" d="m183.2 212.7l4.7 7.7 5.3-3.7-4.2-6.9z"/>
					<path id="&lt;Path&gt;" class="s1" d="m189.6 229l-2.2 8.8 6.4 1.1 1.9-7.9z"/>
					<path id="&lt;Path&gt;" class="s1" d="m182.5 245.1l-7.7 4.7 3.7 5.2 6.9-4.2z"/>
				</g>
				<path id="&lt;Compound Path&gt;" fill-rule="evenodd" class="s1" d="m159.6 224.7l6.9-4.2 7.1 3.9 0.1 8-6.8 4.2-7.1-3.9zm4.6 3.3c-0.4 1.4 0.5 2.8 1.8 3.1 1.4 0.3 2.8-0.5 3.1-1.9 0.4-1.4-0.5-2.7-1.8-3.1-1.4-0.3-2.8 0.5-3.1 1.9z"/>
			</g>
		</g>
	</g>
	<g id="Speech Bubble">
		<g id="&lt;Group&gt;">
			<g id="&lt;Group&gt;">
				<path id="&lt;Path&gt;" class="s6" d="m723.2 477.9c-5.4-8.2-8.4-17.4-8.4-27.2 0-34.4 37.7-62.2 84.3-62.2 46.6 0 84.3 27.8 84.3 62.2 0 34.4-37.7 62.3-84.3 62.3-22.6 0-43-6.5-58.2-17.2l-29 7.4z"/>
				<path id="&lt;Compound Path&gt;" fill-rule="evenodd" class="s1" d="m723.2 477.9c-5.1-7.6-8.3-16.5-8.6-25.7-0.3-9.1 2-18.4 6.7-26.3 4.6-8 11.1-14.7 18.5-20.1 7.4-5.5 15.8-9.6 24.5-12.5 8.7-2.9 17.8-4.6 26.9-5.4 9.2-0.6 18.4-0.1 27.5 1.4 2.2 0.5 4.5 0.8 6.7 1.4l6.7 1.8 6.5 2.3c2.2 0.7 4.2 1.8 6.3 2.7 8.3 4 16.1 9.1 22.7 15.7 6.5 6.5 11.8 14.4 14.6 23.3 2.7 8.9 2.9 18.6 0.2 27.5-2.6 9-7.7 17-14.2 23.6-6.4 6.6-14.2 11.9-22.4 15.9-8.3 4.1-17.2 6.8-26.2 8.4-9.1 1.6-18.3 2.2-27.4 1.6-9.2-0.6-18.3-2.2-27-5.1-8.6-2.9-16.9-6.8-24.4-12.1l-28.9 7.1-0.4 0.1 0.2-0.4zm17.7 18.4l0.2-0.1-0.4-0.1q0.1 0.1 0.2 0.2zm-17.7-18.4l-10.9 24.9 28.5-7.5h0.2l0.2 0.1c15 10.3 33 15.7 51.1 16.7 9 0.5 18.1-0.2 27-1.8 8.9-1.7 17.6-4.3 25.7-8.4 8.1-3.9 15.6-9.1 21.9-15.6 6.3-6.4 11.2-14.2 13.7-22.8 2.6-8.6 2.3-17.9-0.3-26.4-2.7-8.5-7.7-16.2-14.1-22.6-6.3-6.4-13.9-11.4-22-15.3-2.1-0.9-4.1-2-6.2-2.7l-6.4-2.3-6.6-1.8c-2.1-0.6-4.4-0.9-6.6-1.4-8.9-1.5-18-2-27-1.4-9.1 0.6-18 2.2-26.6 5-8.7 2.8-16.9 6.8-24.3 12.1-7.3 5.3-13.8 11.8-18.5 19.6-4.7 7.7-7.1 16.8-7 25.9 0.2 9.1 3.2 18 8.2 25.7zm-10.9 24.9l-0.5 0.1 0.3 0.3z"/>
			</g>
			<g id="&lt;Group&gt;">
				<path id="&lt;Compound Path&gt;" class="s1" d="m755.7 460.9v4.7h-18.8v-27.2h18.5v4.6h-13.3v6.6h11.5v4.2h-11.5v7.1z"/>
				<path id="&lt;Compound Path&gt;" fill-rule="evenodd" class="s1" d="m759.9 465.6v-27.2h12q1.9 0 3.4 0.8 1.6 0.8 2.8 2 1.1 1.3 1.8 2.9 0.6 1.7 0.6 3.3 0 2.7-1.3 4.8-1.3 2.2-3.6 3.1l6.2 10.3h-5.9l-5.6-9.2h-5.2v9.2zm5.3-13.8h6.6q0.8 0 1.4-0.3 0.6-0.4 1.1-1 0.5-0.6 0.7-1.4 0.3-0.8 0.3-1.7 0-0.9-0.3-1.7-0.3-0.8-0.8-1.4-0.6-0.6-1.2-1-0.7-0.3-1.4-0.3h-6.4z"/>
				<path id="&lt;Compound Path&gt;" fill-rule="evenodd" class="s1" d="m785.3 465.6v-27.2h12q1.9 0 3.5 0.8 1.6 0.8 2.7 2 1.2 1.3 1.8 2.9 0.7 1.7 0.7 3.3 0 2.7-1.3 4.8-1.4 2.2-3.6 3.1l6.2 10.3h-6l-5.5-9.2h-5.2v9.2zm5.3-13.8h6.6q0.7 0 1.4-0.3 0.6-0.4 1-1 0.5-0.6 0.8-1.4 0.2-0.8 0.2-1.7 0-0.9-0.3-1.7-0.3-0.8-0.8-1.4-0.5-0.6-1.2-1-0.6-0.3-1.3-0.3h-6.4z"/>
				<path id="&lt;Compound Path&gt;" fill-rule="evenodd" class="s1" d="m822.4 465.7q-3 0-5.5-1.1-2.4-1.2-4.1-3.1-1.8-2-2.7-4.4-1-2.5-1-5.1 0-2.7 1-5.2 1-2.5 2.8-4.4 1.8-2 4.3-3.1 2.4-1.1 5.3-1.1 2.9 0 5.4 1.2 2.4 1.2 4.1 3.2 1.7 1.9 2.7 4.4 0.9 2.5 0.9 5 0 2.8-1 5.2-1 2.5-2.7 4.4-1.8 1.9-4.2 3-2.5 1.1-5.3 1.1zm-7.9-13.7q0 1.7 0.5 3.4 0.5 1.6 1.6 2.9 1 1.2 2.4 2 1.5 0.8 3.4 0.8 1.9 0 3.4-0.8 1.5-0.8 2.5-2.1 1-1.3 1.5-2.9 0.5-1.6 0.5-3.3 0-1.8-0.5-3.4-0.6-1.7-1.6-2.9-1-1.3-2.5-2.1-1.5-0.7-3.3-0.7-1.9 0-3.4 0.8-1.5 0.8-2.5 2.1-1 1.2-1.5 2.9-0.5 1.6-0.5 3.3z"/>
				<path id="&lt;Compound Path&gt;" fill-rule="evenodd" class="s1" d="m839.7 465.6v-27.2h12q1.9 0 3.5 0.8 1.6 0.8 2.7 2 1.2 1.3 1.8 2.9 0.7 1.7 0.7 3.3 0 2.7-1.4 4.8-1.3 2.2-3.5 3.1l6.2 10.3h-6l-5.5-9.2h-5.2v9.2zm5.3-13.8h6.6q0.7 0 1.3-0.3 0.7-0.4 1.1-1 0.5-0.6 0.8-1.4 0.2-0.8 0.2-1.7 0-0.9-0.3-1.7-0.3-0.8-0.8-1.4-0.5-0.6-1.2-1-0.7-0.3-1.3-0.3h-6.4z"/>
			</g>
		</g>
	</g>
</svg>